<svg xmlns="http://www.w3.org/2000/svg" aria-hidden="true" style="position:absolute;width:0;height:0;overflow:hidden">
  <defs>
    <symbol id="list-icon-3" viewBox="0 0 51 32">
      <path fill="#c08acf" d="m9.628 21.409-3.853 3.643v6.369h3.853V21.409z" style="fill:var(--color1, #c08acf)"/>
      <path fill="#280074" d="M13.48 19.024h-1.284l-2.569 2.385v10.012h3.853V19.024z" style="fill:var(--color2, #280074)"/>
      <path fill="#c08acf" d="M17.333 19.024H13.48v12.397h3.853V19.024z" style="fill:var(--color1, #c08acf)"/>
      <path fill="#280074" d="M21.16 19.024h-3.853v12.397h3.853V19.024z" style="fill:var(--color2, #280074)"/>
      <path fill="#c08acf" d="m24.987 16.01-3.198 3.014h-.629v12.397h3.827V16.01z" style="fill:var(--color1, #c08acf)"/>
      <path fill="#280074" d="M28.839 12.969h-.629l-3.224 3.04V31.42h3.853V12.968z" style="fill:var(--color2, #280074)"/>
      <path fill="#c08acf" d="M32.692 12.969h-3.853v18.452h3.853V12.969z" style="fill:var(--color1, #c08acf)"/>
      <path fill="#280074" d="M36.545 12.969h-3.853v18.452h3.853V12.969z" style="fill:var(--color2, #280074)"/>
      <path fill="#c08acf" d="m40.372 10.558-2.595 2.411h-1.258v18.452h3.853V10.558z" style="fill:var(--color1, #c08acf)"/>
      <path fill="#280074" d="m44.198 6.941-3.827 3.617v20.863h3.827V6.941z" style="fill:var(--color2, #280074)"/>
      <path fill="none" stroke="#4d0063" stroke-miterlimit="10" stroke-width=".444" d="m46.19 5.08-8.387 7.889H28.21l-6.421 6.055h-9.593L4.464 26.31" style="stroke:var(--color3, #4d0063)"/>
      <path fill="#4d0063" d="m41.839 5.84 5.452-1.782-2.202 4.901.052-2.857-3.302-.262z" style="fill:var(--color3, #4d0063)"/>
      <path fill="#280074" stroke="#4d0063" stroke-miterlimit="10" stroke-width=".444" d="M20.662 10.663c-.236 1.232-.655 2.516-1.048 3.538.236 0 .681.026.917.498.315.629.917 1.966 1.311 2.831h.341v-3.722c0-2.175-1.127-2.962-1.52-3.145zM13.245 10.663c.236 1.232.655 2.516 1.048 3.538-.236 0-.681.026-.917.498-.315.629-.917 1.966-1.31 2.831h-.341v-3.722c-.026-2.175 1.101-2.962 1.52-3.145z" style="fill:var(--color2, #280074);stroke:var(--color3, #4d0063)"/>
      <path fill="#280074" d="M13.245 10.663c.236 1.232.655 2.516 1.048 3.538-.236 0-.681.026-.917.498-.315.629-.917 1.966-1.31 2.831h-.341v-3.722c-.026-2.175 1.101-2.962 1.52-3.145z" style="fill:var(--color2, #280074)"/>
      <path fill="#fff" stroke="#4d0063" stroke-miterlimit="10" stroke-width=".444" d="M16.206.939c-1.101 1.415-3.224 4.508-3.224 8.099 0 3.119 2.175 7.365 2.175 7.365h3.486s2.175-4.246 2.175-7.365c0-3.565-2.097-6.657-3.224-8.073-.393-.524-.97-.524-1.389-.026z" style="fill:var(--color4, #fff);stroke:var(--color3, #4d0063)"/>
      <path fill="#280074" stroke="#4d0063" stroke-miterlimit="10" stroke-width=".444" d="M18.722 16.403h-3.538v.813h3.538v-.813z" style="fill:var(--color2, #280074);stroke:var(--color3, #4d0063)"/>
      <path fill="#eb5757" stroke="#4d0063" stroke-miterlimit="10" stroke-width=".444" d="M18.723 17.215s1.782 1.808 1.127 4.325c0 0-.419-1.284-.996-1.835 0 0 .629 1.284-.577 3.04s-2.202 2.726-1.573 3.512c0 0-2.569-3.879-1.284-6.448 0 0-.996 1.599-.944 2.673 0 0-.734-3.145.708-5.242h3.538v-.026z" style="fill:var(--color5, #eb5757);stroke:var(--color3, #4d0063)"/>
      <path fill="#eb5757" d="M16.888 24.659v-7.444h-1.73c-1.442 2.123-.708 5.242-.708 5.242-.079-1.048.944-2.673.944-2.673-1.127 2.254.681 5.504 1.179 6.29-.21-.393-.026-.839.315-1.415z" style="fill:var(--color5, #eb5757)"/>
      <path fill="#eb7a2c" stroke="#4d0063" stroke-miterlimit="10" stroke-width=".444" d="M15.761 17.215s-.708.577-.524 1.73c0 0 .105-.393.629-.629 0 0-.262 2.123.577 3.276 0 0 .052-1.73.76-1.992a1.852 1.852 0 0 0 1.048-2.385h-2.49z" style="fill:var(--color6, #eb7a2c);stroke:var(--color3, #4d0063)"/>
      <path fill="#eb7a2c" d="M16.888 17.215h-1.127s-.708.577-.524 1.73c0 0 .105-.393.629-.629 0 0-.262 2.123.577 3.276 0 0 .026-1.179.446-1.73v-2.647z" style="fill:var(--color6, #eb7a2c)"/>
      <path fill="#c3c5ca" d="M16.914.572c-.236.026-.446.131-.655.367-1.127 1.415-3.276 4.508-3.276 8.099 0 3.119 2.202 7.365 2.202 7.365h1.73V.572z" style="fill:var(--color7, #c3c5ca)"/>
      <path fill="#eb5757" stroke="#4d0063" stroke-miterlimit="10" stroke-width=".444" d="M16.914 2.957c.681 0 1.284-.157 1.808-.446A16.237 16.237 0 0 0 17.621.965c-.419-.524-.97-.524-1.389 0-.315.393-.708.917-1.127 1.573.498.262 1.127.419 1.809.419z" style="fill:var(--color5, #eb5757);stroke:var(--color3, #4d0063)"/>
      <path fill="#eb5757" d="M16.809.572c-.026 0-.026 0 0 0h-.366s-.026 0-.026.026c0 0-.026 0-.026.026l-.026.026s-.026 0-.026.026c0 0-.026 0-.026.026 0 0-.026 0-.026.026 0 0-.026 0-.026.026 0 0-.026 0-.026.026l-.026.026-.026.026-.026.026-.026.026-.026.026v.026l-.052.052v.026c0 .026-.026.026-.026.052l-.026.026c0 .026-.026.026-.026.052l-.026.026s-.026.026-.026.052c0 0-.026.026-.026.052s-.026.026-.026.052-.026.026-.026.052l-.026.026c0 .026-.026.026-.026.052l-.026.026c-.026.026-.026.052-.052.079 0 0 0 .026-.026.026a.37.37 0 0 0-.079.105v.026c-.026.026-.026.052-.052.079.079-.052.052-.052.052-.052-.026.026-.026.052-.052.079l-.026.026c-.026.026-.026.052-.052.079l-.026.026c-.026.026-.026.052-.052.079l-.026.026c-.026.026-.026.052-.052.079 0 0 0 .026-.026.026-.026.026-.026.052-.052.079v.026l-.157.236a4.15 4.15 0 0 0 1.756.446V.567h-.026z" style="fill:var(--color5, #eb5757)"/>
      <path fill="#eb5757" stroke="#4d0063" stroke-miterlimit="10" stroke-width=".444" d="M19.404 8.488a2.489 2.489 0 1 1-4.98 0 2.489 2.489 0 0 1 2.49-2.49c1.363-.026 2.49 1.101 2.49 2.49z" style="fill:var(--color5, #eb5757);stroke:var(--color3, #4d0063)"/>
      <path fill="#eb5757" d="M16.914 5.971c-1.389 0-2.516 1.127-2.516 2.49a2.489 2.489 0 0 0 2.49 2.49v-4.98h.026z" style="fill:var(--color5, #eb5757)"/>
      <path fill="#280074" stroke="#4d0063" stroke-miterlimit="10" stroke-width=".444" d="M18.749 8.488c0 1.022-.839 1.861-1.861 1.861s-1.861-.839-1.861-1.861.839-1.861 1.861-1.861c1.048 0 1.861.839 1.861 1.861z" style="fill:var(--color2, #280074);stroke:var(--color3, #4d0063)"/>
      <path fill="#280074" d="M16.914 6.627c-1.022 0-1.861.839-1.861 1.861s.839 1.861 1.861 1.861V6.627z" style="fill:var(--color2, #280074)"/>
      <path fill="#280074" stroke="#4d0063" stroke-miterlimit="10" stroke-width=".444" d="M16.757 18.159c.026.105.026.236.052.341h.288c.026-.105.052-.236.052-.341a12.4 12.4 0 0 0 .131-.97 24.176 24.176 0 0 0 0-3.88 12.4 12.4 0 0 0-.131-.97l-.079-.393h-.262l-.079.393a12.4 12.4 0 0 0-.131.97 24.176 24.176 0 0 0 0 3.88c.052.341.105.655.157.97z" style="fill:var(--color2, #280074);stroke:var(--color3, #4d0063)"/>
      <path fill="#280074" d="M16.888 11.947h-.079l-.079.393a12.4 12.4 0 0 0-.131.97 24.176 24.176 0 0 0 0 3.88c.026.315.079.655.131.97.026.105.026.236.052.341h.079v-6.553h.026z" style="fill:var(--color2, #280074)"/>
      <path fill="none" stroke="#4d0063" stroke-miterlimit="10" stroke-width=".444" d="M.402 31.421h49.877" style="stroke:var(--color3, #4d0063)"/>
    </symbol>
    <symbol id="list-icon-2" viewBox="0 0 28 32">
      <path fill="#4d0063" stroke="#280074" stroke-miterlimit="10" stroke-width=".444" d="M22.889.541H5.558v30.91h17.331V.541z" style="fill:var(--color3, #4d0063);stroke:var(--color2, #280074)"/>
      <path fill="#280074" d="M17.894 1.424h-7.321v.782h7.321v-.782z" style="fill:var(--color2, #280074)"/>
      <path fill="#4d0063" d="M5.558.541v30.91h8.665V.541H5.558z" style="fill:var(--color3, #4d0063)"/>
      <path fill="#fff" stroke="#280074" stroke-linecap="round" stroke-linejoin="round" stroke-miterlimit="10" stroke-width=".444" d="M21.966 2.768H6.481v25.796h15.485V2.768z" style="fill:var(--color4, #fff);stroke:var(--color2, #280074)"/>
      <path fill="#c08acf" d="M14.384 2.768H6.481v25.796h7.903V2.768z" style="fill:var(--color1, #c08acf)"/>
      <path fill="#fff" stroke="#280074" stroke-linecap="round" stroke-linejoin="round" stroke-miterlimit="10" stroke-width=".444" d="M16.029 30.008a.561.561 0 0 1-.562.562H12.98a.561.561 0 1 1 0-1.124h2.487c.321 0 .562.261.562.562z" style="fill:var(--color4, #fff);stroke:var(--color2, #280074)"/>
      <path fill="#c08acf" d="M12.94 29.446c-.281 0-.501.241-.501.562s.221.562.501.562h1.304v-1.103H12.94v-.02z" style="fill:var(--color1, #c08acf)"/>
      <path fill="none" stroke="#280074" stroke-miterlimit="10" stroke-width=".444" d="M12.338 12.496V9.507l-.682-.983v-3.41M16.149 12.496v-2.267l.682-.983V5.234M15.026 12.496V9.608l.682-.702V6.318M13.461 12.496V9.608l-.682-.702V6.318M14.244 12.496V7.06" style="stroke:var(--color2, #280074)"/>
      <path fill="#280074" d="M14.665 7.422c0 .261-.221.481-.481.481s-.481-.221-.481-.481c0-.261.221-.481.481-.481.281 0 .481.221.481.481zM13.241 6.078c0 .261-.221.481-.481.481s-.481-.221-.481-.481c0-.261.221-.481.481-.481s.481.221.481.481zM16.169 6.078c0 .261-.221.481-.481.481s-.481-.221-.481-.481c0-.261.221-.481.481-.481.281 0 .481.221.481.481zM17.292 4.894c0 .261-.221.481-.481.481s-.481-.221-.481-.481c0-.261.221-.481.481-.481.281.02.481.221.481.481zM12.137 4.894c0 .261-.221.481-.481.481s-.481-.221-.481-.481c0-.261.221-.481.481-.481.261.02.481.221.481.481z" style="fill:var(--color2, #280074)"/>
      <path fill="none" stroke="#280074" stroke-miterlimit="10" stroke-width=".444" d="M16.149 19.477v3.009l.682.983v3.39M12.338 19.477v2.287l-.682.983v4.012M13.461 19.477v2.888l-.682.702v2.588M15.026 19.477v2.888l.682.702v2.588M14.244 19.477v5.456" style="stroke:var(--color2, #280074)"/>
      <path fill="#280074" d="M13.802 24.572c0-.261.221-.481.481-.481s.481.221.481.481c0 .261-.221.481-.481.481s-.481-.221-.481-.481zM15.247 25.916c0-.261.221-.481.481-.481s.481.221.481.481c0 .261-.221.481-.481.481s-.481-.221-.481-.481zM12.298 25.916c0-.261.221-.481.481-.481s.481.221.481.481c0 .261-.221.481-.481.481s-.481-.221-.481-.481zM11.195 27.079c0-.261.221-.481.481-.481s.481.221.481.481a.488.488 0 0 1-.481.481.475.475 0 0 1-.481-.481zM16.35 27.079c0-.261.221-.481.481-.481s.481.221.481.481a.488.488 0 0 1-.481.481.475.475 0 0 1-.481-.481z" style="fill:var(--color2, #280074)"/>
      <path fill="none" stroke="#280074" stroke-miterlimit="10" stroke-width=".444" d="M19.94 14.061h3.009l.983-.682h3.39M19.94 17.852h2.267l.983.682h4.012M19.94 16.749h2.888l.702.662h2.588M19.94 15.164h2.888l.702-.662h2.588M19.94 15.967h5.436" style="stroke:var(--color2, #280074)"/>
      <path fill="#280074" d="M25.035 16.388c-.261 0-.481-.221-.481-.481s.221-.481.481-.481c.261 0 .481.221.481.481-.02.281-.221.481-.481.481zM26.379 14.944c-.261 0-.481-.221-.481-.481s.221-.481.481-.481c.261 0 .481.221.481.481-.02.281-.221.481-.481.481zM26.379 17.892c-.261 0-.481-.221-.481-.481s.221-.481.481-.481c.261 0 .481.221.481.481-.02.261-.221.481-.481.481zM27.543 19.016c-.261 0-.481-.221-.481-.481s.221-.481.481-.481c.261 0 .481.221.481.481s-.221.481-.481.481zM27.543 13.84c-.261 0-.481-.221-.481-.481s.221-.481.481-.481.481.221.481.481a.475.475 0 0 1-.481.481z" style="fill:var(--color2, #280074)"/>
      <path fill="none" stroke="#280074" stroke-miterlimit="10" stroke-width=".444" d="M8.507 14.061H5.518l-.983-.682h-3.41M8.507 17.852H6.24l-.983.682H1.245M8.507 16.749H5.619l-.702.662H2.329M8.507 15.164H5.619l-.702-.662H2.329M8.507 15.967H3.071" style="stroke:var(--color2, #280074)"/>
      <path fill="#280074" d="M3.432 16.388c.261 0 .481-.221.481-.481s-.221-.481-.481-.481a.488.488 0 0 0-.481.481c0 .281.201.481.481.481zM2.088 14.944c.261 0 .481-.221.481-.481s-.221-.481-.481-.481-.481.221-.481.481c0 .281.221.481.481.481zM2.088 17.892c.261 0 .481-.221.481-.481s-.221-.481-.481-.481-.481.221-.481.481c0 .261.221.481.481.481zM.904 19.016c.261 0 .481-.221.481-.481s-.221-.481-.481-.481a.488.488 0 0 0-.481.481c.02.261.221.481.481.481zM.904 13.84c.261 0 .481-.221.481-.481s-.221-.481-.481-.481-.481.221-.481.481c.02.281.221.481.481.481z" style="fill:var(--color2, #280074)"/>
      <path fill="#4d0063" stroke="#280074" stroke-miterlimit="10" stroke-width=".444" d="M19.86 19.718a1.84 1.84 0 0 1-1.845 1.845h-7.522a1.84 1.84 0 0 1-1.845-1.845v-7.522a1.84 1.84 0 0 1 1.845-1.845h7.522a1.84 1.84 0 0 1 1.845 1.845v7.522z" style="fill:var(--color3, #4d0063);stroke:var(--color2, #280074)"/>
      <path fill="#4d0063" d="M14.163 10.33h-3.671a1.84 1.84 0 0 0-1.845 1.845v7.522a1.84 1.84 0 0 0 1.845 1.845h3.691V10.329h-.02z" style="fill:var(--color3, #4d0063)"/>
      <path fill="#c08acf" d="M17.012 16.308c-.201-.261-.542-.441-.983-.562.301-.1.522-.241.662-.421.221-.261.341-.582.341-.943 0-.441-.16-.802-.481-1.103-.241-.221-.582-.361-.983-.421v-.562h-.682v.542h-.702v-.542h-.682v.542h-1.946v6.218h1.946v.542h.682v-.542h.702v.542h.682v-.602c.06 0 .12-.02.181-.02.321-.04.562-.12.722-.201.261-.14.461-.361.622-.602.14-.261.221-.542.221-.863 0-.421-.1-.742-.301-1.003zm-3.491-2.207h.842c.301 0 .501.06.622.16s.181.241.181.421c0 .201-.06.341-.181.441s-.321.161-.622.161h-.842v-1.183zm0 3.631v-1.264h.983c.341 0 .582.06.702.16.14.12.201.261.201.441 0 .201-.06.361-.201.481s-.361.181-.702.181h-.983z" style="fill:var(--color1, #c08acf)"/>
    </symbol>
    <symbol id="list-icon-1" viewBox="0 0 30 32">
      <path fill="#c08acf" stroke="#280074" stroke-miterlimit="10" stroke-width=".444" d="M29.484 22.054c0 5.189-4.205 9.394-9.394 9.394s-9.394-4.205-9.394-9.394a9.393 9.393 0 0 1 9.394-9.394c5.189-.021 9.394 4.205 9.394 9.394z" style="fill:var(--color1, #c08acf);stroke:var(--color2, #280074)"/>
      <path fill="#c08acf" stroke="#280074" stroke-miterlimit="10" stroke-width=".444" d="M27.79 22.054c0 4.247-3.452 7.699-7.699 7.699s-7.699-3.452-7.699-7.699 3.452-7.699 7.699-7.699 7.699 3.431 7.699 7.699z" style="fill:var(--color1, #c08acf);stroke:var(--color2, #280074)"/>
      <path fill="#c08acf" d="M20.069 12.639c-5.189.021-9.373 4.226-9.373 9.415s4.205 9.394 9.373 9.394V12.639z" style="fill:var(--color1, #c08acf)"/>
      <path fill="none" stroke="#280074" stroke-miterlimit="10" stroke-width=".444" d="M29.484 22.054c0 5.189-4.205 9.394-9.394 9.394s-9.394-4.205-9.394-9.394a9.393 9.393 0 0 1 9.394-9.394c5.189-.021 9.394 4.205 9.394 9.394z" style="stroke:var(--color2, #280074)"/>
      <path fill="none" stroke="#280074" stroke-miterlimit="10" stroke-width=".444" d="M27.79 22.054c0 4.247-3.452 7.699-7.699 7.699s-7.699-3.452-7.699-7.699 3.452-7.699 7.699-7.699 7.699 3.431 7.699 7.699zM19.756 12.639v1.716M19.756 29.753v1.695M29.735 22.054H28.04M12.642 22.054h-1.695M26.995 15.4l-1.213 1.213M14.902 27.493l-1.213 1.213M26.995 28.707l-1.213-1.213M14.902 16.614l-1.213-1.213M25.07 13.915l-.858 1.465M16.471 28.707l-.858 1.465M28.48 26.761l-1.485-.837M13.688 18.183l-1.485-.858M29.17 19.627l-1.632.439M12.642 24.02l-1.632.439M22.162 31.134l-.439-1.632M17.768 14.605l-.418-1.653M22.957 13.015l-.481 1.632M18.207 29.439l-.481 1.653M29.38 24.648l-1.632-.46M12.935 19.92l-1.632-.481M28.313 17.514l-1.485.816M13.353 25.778l-1.485.816M24.881 30.276l-.816-1.485M16.617 15.317l-.816-1.506" style="stroke:var(--color2, #280074)"/>
      <path fill="none" stroke="#fff" stroke-linecap="round" stroke-linejoin="round" stroke-miterlimit="10" stroke-width=".444" d="M13.437 22.388a6.643 6.643 0 0 1 6.653-6.653M21.095 15.735s1.234.042 2.427.879" style="stroke:var(--color4, #fff)"/>
      <path fill="#280074" d="M23.312 22.828c-.272-.335-.69-.565-1.234-.69.377-.125.649-.293.837-.523a1.75 1.75 0 0 0 .439-1.193c0-.544-.209-1.004-.607-1.381-.314-.293-.732-.46-1.234-.523v-.711h-.858v.669h-.879v-.669h-.858v.669H16.47v7.825h2.448v.69h.858v-.69h.879v.69h.858v-.753c.084 0 .146-.021.23-.021.418-.063.711-.146.921-.251a1.96 1.96 0 0 0 .774-.774c.188-.314.293-.69.293-1.088-.021-.544-.146-.941-.418-1.276zm-4.393-2.783h1.067c.356 0 .628.063.774.188s.23.314.23.544c0 .251-.084.439-.23.565s-.418.188-.795.188h-1.046v-1.485zm0 4.561v-1.569h1.234c.418 0 .711.063.879.209s.251.335.251.565c0 .251-.084.439-.251.586s-.46.23-.879.23h-1.234v-.021z" style="fill:var(--color2, #280074)"/>
      <path fill="#c08acf" stroke="#280074" stroke-miterlimit="10" stroke-width=".444" d="M19.504 10.023c0 5.231-4.247 9.478-9.478 9.478S.548 15.254.548 10.023 4.795.545 10.026.545s9.478 4.247 9.478 9.478z" style="fill:var(--color1, #c08acf);stroke:var(--color2, #280074)"/>
      <path fill="#c08acf" stroke="#280074" stroke-miterlimit="10" stroke-width=".444" d="M17.789 10.023c0 4.289-3.473 7.762-7.762 7.762s-7.762-3.473-7.762-7.762 3.473-7.762 7.762-7.762 7.762 3.473 7.762 7.762z" style="fill:var(--color1, #c08acf);stroke:var(--color2, #280074)"/>
      <path fill="#c08acf" d="M10.006.546C4.775.567.549 4.793.549 10.024s4.226 9.457 9.457 9.478V.547z" style="fill:var(--color1, #c08acf)"/>
      <path fill="none" stroke="#280074" stroke-miterlimit="10" stroke-width=".444" d="M19.504 10.023c0 5.231-4.247 9.478-9.478 9.478S.548 15.254.548 10.023 4.795.545 10.026.545s9.478 4.247 9.478 9.478z" style="stroke:var(--color2, #280074)"/>
      <path fill="none" stroke="#280074" stroke-miterlimit="10" stroke-width=".444" d="M17.789 10.023c0 4.289-3.473 7.762-7.762 7.762s-7.762-3.473-7.762-7.762 3.473-7.762 7.762-7.762 7.762 3.473 7.762 7.762zM9.692.546v1.716M9.692 17.786v1.716M19.756 10.023H18.04M2.516 10.023H.8M16.973 3.328 15.76 4.541M4.796 15.505l-1.213 1.213M16.973 16.718l-1.213-1.213M4.796 4.542 3.583 3.329M15.027 1.822l-.858 1.485M6.386 16.739l-.858 1.465M18.479 14.773l-1.485-.858M3.562 6.132l-1.485-.879M19.17 7.596l-1.653.439M2.516 12.011l-1.653.439M12.119 19.166l-.439-1.653M7.684 2.512 7.245.859M12.914.922l-.481 1.632M8.123 17.472l-.481 1.653M19.379 12.639l-1.653-.46M2.83 7.869l-1.653-.481M18.312 5.441l-1.506.837M3.227 13.768l-1.506.837M14.86 18.309l-.837-1.506M6.533 3.224l-.837-1.506" style="stroke:var(--color2, #280074)"/>
      <path fill="none" stroke="#fff" stroke-linecap="round" stroke-linejoin="round" stroke-miterlimit="10" stroke-width=".444" d="M3.311 10.358a6.688 6.688 0 0 1 6.695-6.695M11.031 3.663s1.255.042 2.448.879" style="stroke:var(--color4, #fff)"/>
      <path fill="#280074" d="m13.291 8.203-2.113.335c-.105-.272-.209-.46-.293-.565s-.23-.209-.418-.314v1.653c1.151.314 1.925.628 2.301.983.502.46.774 1.046.774 1.737 0 .418-.084.795-.272 1.13s-.418.628-.711.858c-.293.23-.586.398-.921.502-.314.105-.711.167-1.193.188v1.067h-.837V14.71c-.565-.042-1.004-.146-1.36-.272s-.649-.314-.9-.544c-.209-.23-.418-.481-.544-.753s-.23-.586-.314-.962l2.301-.272c.063.377.167.649.272.816.126.167.314.314.565.439v-2.009c-.774-.209-1.318-.398-1.632-.544s-.586-.398-.837-.753c-.23-.335-.356-.753-.356-1.255 0-.67.23-1.234.711-1.695s1.172-.711 2.113-.753v-.565h.837v.565c.858.063 1.506.251 1.946.607.46.356.753.837.879 1.444zM9.65 7.617c-.251.084-.418.188-.502.293-.105.126-.146.251-.146.418s.042.314.146.439c.105.126.272.23.502.314V7.616zm.816 5.608c.314-.063.565-.188.711-.356s.23-.356.23-.565c0-.188-.063-.335-.188-.502-.126-.146-.377-.293-.732-.418v1.841h-.021z" style="fill:var(--color2, #280074)"/>
    </symbol>
    <symbol id="icon-close" viewBox="0 0 32 32">
      <path d="M4.292 5.708A.991.991 0 0 1 3.999 5a1.006 1.006 0 0 1 .618-.925 1.01 1.01 0 0 1 .766 0c.121.05.232.124.325.217L16 14.586 26.292 4.292A.991.991 0 0 1 27 3.999a1.002 1.002 0 0 1 .708 1.709L17.414 16l10.294 10.292a.991.991 0 0 1 .293.708 1.006 1.006 0 0 1-.618.925 1.01 1.01 0 0 1-.766 0 1.002 1.002 0 0 1-.325-.217L16 17.414 5.708 27.708a.991.991 0 0 1-.708.293 1.006 1.006 0 0 1-.925-.618 1.01 1.01 0 0 1 0-.766c.05-.121.124-.232.217-.325L14.586 16 4.292 5.708z"/>
    </symbol>
    <symbol id="chart-up" viewBox="0 0 105 32">
      <path stroke-linecap="round" stroke-miterlimit="10" stroke-width="1.548" d="m1.263 14.43.622-.526M1.885 13.903l.622-3.656M2.506 10.247l.622.33M3.128 10.577 3.75 8.47M3.75 8.47l.622 1.468M4.372 9.939l.622 1.6M4.994 11.538l.622-.599M5.615 10.939l.622-2.923M6.237 8.016l.622-.64M6.859 7.376l.622 1.522M7.481 8.897l.622 3.648M8.103 12.545l.622 2.873M8.725 15.418l.622-1.16M9.347 14.258l.622-.686M9.969 13.572l.622 3.322M10.59 16.894l.622 1.687M11.212 18.581l.622 2.069M11.834 20.65l.622 3.716M12.456 24.366l.622-1.342M13.078 23.024l.622.168M13.7 23.193l.622 1.561M14.322 24.754l.622-2.239M14.943 22.514l.622 1.138M15.565 23.653l.622-1.17M16.187 22.483l.622.741M16.808 23.224l.622 1.561M17.43 24.784l.622-1.312M18.052 23.472l.622-3.458M18.674 20.014l.622 5.708M19.296 25.721l.622-1.352M19.918 24.37l.622-2.66M20.54 21.71l.622-2.163M21.162 19.546l.622-.117M21.783 19.429l.622 1.332M22.405 20.761l.622 3.156M23.027 23.917l.622-.662M23.649 23.254l.622.721M24.271 23.976l.622-1.132M24.893 22.844l.622-3.329M25.515 19.515l.622 1.819M26.136 21.334l.622-.547M26.758 20.787l.622-2.095M27.38 18.692l.622 2.401M28.002 21.092l.622-2.257M28.624 18.835l.622.603M29.245 19.439l.622-.322M29.867 19.116l.622-1.087M30.489 18.029l.622-2.332M31.111 15.698l.622 1.401M31.733 17.099l.622.434M32.355 17.532l.622 1.306M32.977 18.838l.622-1.612M33.598 17.226l.622 5.098M34.22 22.325l.622.692M34.842 23.017l.622-1.74M35.464 21.277l.622.064M36.086 21.341l.622-1.475M36.708 19.866l.622-2.49M37.33 17.377l.622-.974M37.952 16.402l.622-1.506M38.573 14.896l.622 2.857M39.195 17.753l.622-1.304M39.817 16.449l.622 1.474M40.438 17.923l.622 1.471M41.06 19.394l.622-1.74M41.682 17.654l.622 1.796M42.304 19.451l.622.871M42.926 20.321l.622.317M43.548 20.639l.622.418M44.17 21.057l.622 2.317M44.791 23.374l.622 6.586M45.413 29.96l.622 1.205M46.035 31.165l.622-2.71M46.657 28.455l.622 1.924M47.279 30.379l.622-4.677M47.901 25.703l.622-6.054M48.523 19.649l.622-2.645M49.145 17.004l.622-.565M49.766 16.438l.622-.531M50.388 15.908l.622 2.009M51.01 17.917l.622-1.582M51.632 16.335l.622-.786M52.254 15.55l.622 2.611M52.875 18.161l.622.731M53.498 18.892l.622.732M54.119 19.624l.622-.119M54.741 19.504l.622 2.865M55.363 22.37l.622 2.592M55.985 24.962l.622.751M56.607 25.713l.622.576M57.228 26.289l.622-4.148M57.85 22.141l.622.083M58.472 22.224l.622.998M59.094 23.221l.622-9.183M59.716 14.039 60.338.953M60.338.953l.622 3.834M60.96 4.786l.622 2.916M61.582 7.702l.622-4.101M62.203 3.601l.622 3.518M62.825 7.119l.622-2.544M63.447 4.575l.622 6.613M64.069 11.188l.622-1.725M64.69 9.463l.622-1.174M65.313 8.288l.622-1.04M65.934 7.249l.622 1.143M66.556 8.392l.622-.016M67.178 8.376l.622-1.445M67.8 6.931l.622.515M68.421 7.445l.622 2.811M69.043 10.257l.622-.199M69.665 10.058l.622-1.689M70.287 8.369l.622.004M70.909 8.373l.622 3.478M71.531 11.851l.622-.242M72.153 11.609l.622.368M72.775 11.977l.622-.386M73.396 11.592l.622-1.623M74.018 9.968l.622-2.299M74.64 7.67l.622-1.725M75.262 5.945l.622 3.283M75.884 9.228l.622-1.22M76.505 8.008l.622 3.139M77.128 11.147l.622.919M77.749 12.065l.622-.085M78.371 11.98l.622-2.057M78.993 9.923l.622-.538M79.615 9.385l.622 1.257M80.237 10.642l.622.803M80.858 11.445l.622-.749M81.48 10.696l.622.737M82.102 11.432l.622 5.325M82.724 16.757l.622-.747M83.346 16.01l.622-.915M83.968 15.095l.622.764M84.59 15.859l.622-.757M85.211 15.102l.622 2.315M85.833 17.417l.622-2.319M86.455 15.098l.622-1.064M87.077 14.034l.622-.721M87.699 13.313l.622 1.054M88.321 14.367l.622-1.744M88.943 12.624l.622-.956M89.564 11.667l.622 1.912M90.186 13.579l.622-1.276M90.808 12.304l.622-1.463M91.43 10.841l.622.141M92.051 10.982l.622-.379M92.673 10.603l.622-.767M93.295 9.836l.622-.168M93.917 9.667l.622 1.218M94.539 10.885l.622.707M95.161 11.593l.622-2.555M95.783 9.038l.622 1.68M96.404 10.718l.622.893M97.026 11.611l.622-.303M97.648 11.308l.622-.581M98.27 10.727l.622.715M98.892 11.442l.622.128M99.514 11.57l.622 2.932M100.136 14.502l.622.626M100.758 15.128l.622-.492M101.379 14.636l.622-2.33M102.001 12.306l.622-.453M102.623 11.853l.621 1.211M103.245 13.065l.621-1.634M103.867 11.431l.622.373"/>
    </symbol>
    <symbol id="chart-down" viewBox="0 0 102 32">
      <path stroke-linecap="round" stroke-miterlimit="10" stroke-width="1.5" d="m1 28.893.602.239M1.603 29.132l.602-.043M2.205 29.089l.602-.736M2.807 28.353l.602.028M3.41 28.381l.602-.156M4.012 28.225l.602.42M4.614 28.645l.602.24M5.217 28.885l.602-.585M5.819 28.3l.602-2.948M6.422 25.352l.602.035M7.024 25.388l.602.141M7.626 25.529l.602 1.032M8.229 26.561l.602 2.583M8.831 29.144l.602-.715M9.434 28.429l.602-.725M10.036 27.704l.602.856M10.639 28.56l.602.49M11.241 29.05l.602.529M11.843 29.579l.602.474M12.446 30.053l.602-.829M13.048 29.224l.602-.175M13.65 29.049l.602.201M14.253 29.25l.602-.11M14.855 29.139l.602.619M15.458 29.759l.602-.413M16.061 29.346l.602.219M16.663 29.565l.602.206M17.265 29.771l.602-.483M17.867 29.288l.602-.734M18.47 28.554l.602 2.081M19.072 30.635l.602-.76M19.675 29.875l.602-3.689M20.277 26.186l.602-2.386M20.879 23.8l.602-.038M21.482 23.762l.602.064M22.084 23.826l.602 1.115M22.686 24.94l.602.43M23.289 25.37l.602-.089M23.892 25.281l.602-.745M24.494 24.536l.602-1.481M25.097 23.055l.602.938M25.699 23.994l.602-.153M26.301 23.841l.602.213M26.903 24.054l.602.379M27.506 24.433l.602-.682M28.108 23.75l.602.051M28.711 23.801l.602-.682M29.314 23.119l.602-1.267M29.916 21.853l.602-1.348M30.518 20.505l.602.983M31.121 21.487l.602.238M31.723 21.725l.602-.237M32.325 21.488l.602-.768M32.928 20.72l.602 1.124M33.53 21.843l.602.45M34.133 22.294l.602-1.143M34.735 21.151l.602-.361M35.337 20.79l.602-1.55M35.94 19.24l.602-2.232M36.542 17.008l.602-.32M37.145 16.688l.602-1.294M37.747 15.394l.602 1.423M38.35 16.817l.602-.616M38.952 16.201l.602.706M39.554 16.907l.602.157M40.157 17.064l.602-1.086M40.759 15.978l.602.056M41.361 16.034l.602.778M41.964 16.812l.602-.591M42.566 16.221l.602-.208M43.169 16.013l.602.33M43.771 16.343l.602 2.659M44.373 19.003l.602-.033M44.976 18.97l.602-1.822M45.578 17.148l.602-.578M46.181 16.57l.602-4.969M46.783 11.601l.602-4.025M47.386 7.576l.602-1.792M47.988 5.784l.602-1.819M48.59 3.966l.602.759M49.193 4.725l.602.903M49.795 5.628l.602-.076M50.398 5.552 51 3.942M51 3.942l.602.39M51.602 4.332l.602-.593M52.205 3.74l.602-.214M52.807 3.526l.602-.673M53.41 2.853l.602 1.759M54.012 4.612l.602.117M54.614 4.729l.602-.845M55.217 3.884l.602.661M55.819 4.544l.602-.834M56.422 3.71l.602 1.385M57.024 5.095l.602.46M57.627 5.554l.602-.682M58.229 4.872l.602.716M58.831 5.588l.602 1.054M59.434 6.642l.602 1.19M60.036 7.832l.602-1.5M60.639 6.332l.602 1.384M61.241 7.716l.602-2.134M61.843 5.582l.602 2.597M62.446 8.179l.602-.134M63.048 8.045l.602-.978M63.65 7.067l.602-.059M64.253 7.008l.602.824M64.856 7.832l.602-.025M65.458 7.808l.602-.892M66.061 6.916l.603-.247M66.663 6.668l.602 1.202M67.265 7.87l.602.381M67.867 8.251l.602-1.143M68.47 7.108l.602-.599M69.072 6.508l.602 1.54M69.675 8.048l.602.156M70.277 8.203l.603-.213M70.879 7.99l.602-.867M71.482 7.124l.602-.08M72.085 7.043l.602-2.158M72.686 4.886l.602-3.519M73.289 1.367l.602 1.726M73.892 3.092l.602-.813M74.494 2.279l.603.9M75.097 3.179l.602 1.563M75.699 4.741l.602 2.057M76.301 6.798l.602-1.431M76.903 5.368l.602 1.229M77.506 6.597l.602-.048M78.108 6.549l.602-.048M78.711 6.501l.603-.723M79.314 5.778l.602-.355M79.915 5.423l.602 2.268M80.518 7.69l.602-.94M81.121 6.75l.602.462M81.723 7.212l.602.477M82.325 7.689l.602-.88M82.928 6.809l.602.813M83.53 7.622l.602-.639M84.133 6.982l.602-1.42M84.735 5.562l.602-.318M85.337 5.244l.602.185M85.939 5.429l.602-.881M86.542 4.548l.602-.157M87.144 4.391l.602.642M87.747 5.033l.602-.565M88.35 4.468l.602.136M88.952 4.604l.602.164M89.554 4.768l.602-.614M90.157 4.155l.603-.878M90.759 3.277l.602.31M91.361 3.588l.602.62M91.964 4.208l.602.556M92.566 4.764l.602-.313M93.169 4.451l.602.058M93.771 4.508l.602.723M94.374 5.231l.602.065M94.976 5.296l.602-.682M95.578 4.614l.602-.109M96.181 4.506l.602-.288M96.783 4.218l.602-.026M97.386 4.192l.602 1.937M97.988 6.129l.602-.801M98.59 5.328l.602-1.628M99.193 3.7l.602-2.192M99.795 1.508l.602.142M100.397 1.65l.603.345"/>
    </symbol>
    <symbol id="app-store" viewBox="0 0 90 32">
      <path d="M11.773 8.371h1.69a.2.2 0 0 0 .202-.197.201.201 0 0 0-.202-.202h-1.69a.205.205 0 0 0-.202.202.2.2 0 0 0 .202.197zm.842 14.827c-.483 0-.881.399-.881.881s.393.881.881.881.881-.393.881-.881-.393-.881-.881-.881zm-4.312-.753h8.634V9.673H8.303v12.772zm27.672-4.193c-.41 0-.78.135-1.112.404a1.9 1.9 0 0 0-.651 1.072 2.188 2.188 0 0 0-.073.505v1.241c0 .545.163 1.005.5 1.375.331.371.764.561 1.297.561.623 0 1.112-.241 1.46-.724s.522-1.117.522-1.909c0-.724-.163-1.325-.488-1.797-.365-.483-.848-.73-1.454-.73zm30.276-.107c-.662 0-1.173.298-1.516.887-.303.488-.449 1.084-.449 1.791 0 .685.146 1.274.449 1.763.354.589.859.887 1.505.887.629 0 1.128-.298 1.488-.904.309-.494.466-1.089.466-1.774s-.146-1.274-.444-1.763c-.359-.589-.853-.887-1.499-.887zm-22.069.107c-.41 0-.78.135-1.112.404-.331.275-.55.629-.657 1.072a2.188 2.188 0 0 0-.073.505v1.241c0 .545.163 1.005.5 1.375.331.371.764.561 1.297.561.629 0 1.112-.241 1.465-.724.348-.483.522-1.117.522-1.909 0-.724-.163-1.325-.494-1.797a1.717 1.717 0 0 0-1.448-.73zm-17.145-2.673h-.034a83.336 83.336 0 0 1-.494 1.954l-.859 2.706h2.779l-.87-2.706c-.095-.281-.269-.932-.522-1.954zm51.801 2.487c-.539 0-.982.23-1.319.679a2.475 2.475 0 0 0-.494 1.286h3.458c.011-.488-.095-.915-.32-1.274-.292-.455-.735-.691-1.325-.691zm-44.486-7.371c.022-.073.022-.14.022-.213v-.528c-.685-.006-1.342.135-1.342.719 0 .382.247.556.55.556a.81.81 0 0 0 .769-.533zm-9.055-2.414c-.101-.326-.191-.685-.269-.994h-.017c-.079.309-.163.679-.253.994l-.41 1.314h1.364l-.415-1.314zM85.552.528H3.772A3.781 3.781 0 0 0-.001 4.301v23.5a3.776 3.776 0 0 0 3.773 3.767h81.78a3.773 3.773 0 0 0 3.773-3.767v-23.5A3.774 3.774 0 0 0 85.552.528zm-5.181 7.371c1.246 0 1.662 1.027 1.662 1.869 0 .18-.017.326-.034.41h-2.577c.022.696.561.994 1.185.994a3.14 3.14 0 0 0 1.067-.174l.14.662c-.331.14-.792.247-1.342.247-1.246 0-1.982-.764-1.982-1.942 0-1.061.646-2.066 1.881-2.066zm-15.417.09.045.578h.022c.174-.303.589-.662 1.229-.662.674 0 1.364.432 1.364 1.651v2.285h-.971V9.668c0-.55-.208-.971-.735-.971-.387 0-.657.275-.758.567a.85.85 0 0 0-.045.309v2.268h-.971v-2.7c0-.444-.017-.814-.034-1.145h.853V7.99zm-10.206-.09c1.246 0 1.662 1.027 1.662 1.869 0 .18-.017.326-.034.41h-2.577c.022.696.561.994 1.185.994.449 0 .764-.073 1.067-.174l.14.662c-.331.14-.792.247-1.342.247-1.246 0-1.982-.764-1.982-1.942 0-1.061.651-2.066 1.881-2.066zm-3.98-1.673h.971v5.608h-.971V6.226zm-7.703 2.358c-.382 0-.775.118-1.033.286l-.191-.634c.286-.174.78-.337 1.392-.337 1.235 0 1.589.78 1.589 1.628v1.381c0 .348.017.685.062.926h-.876l-.073-.427h-.022c-.23.298-.634.517-1.14.517-.775 0-1.207-.561-1.207-1.145 0-.966.859-1.46 2.285-1.454v-.062c-.006-.258-.112-.679-.786-.679zm-5.749-2.2c.331 0 .539.23.545.528 0 .286-.213.522-.556.522a.515.515 0 0 1-.539-.522.529.529 0 0 1 .55-.528zm.483 1.605v3.846h-.971V7.989h.971zM24.438 6.507h1.241l1.729 5.322h-1.05l-.483-1.51h-1.684l-.46 1.51h-1.005l1.712-5.322zm-6.473 17.656c0 .938-.764 1.701-1.701 1.701H8.966a1.7 1.7 0 0 1-1.701-1.701V7.95c0-.938.763-1.701 1.701-1.701h7.298c.938 0 1.701.763 1.701 1.701v16.213zm11.728.388-.966-3.043h-3.368l-.921 3.043H22.72l3.329-10.358h2.06l3.352 10.358h-1.768zm.376-12.716h-.954l-1.432-3.846h1.05l.623 1.954c.112.337.191.646.258.966h.022c.073-.314.157-.618.258-.966l.618-1.954h1.022l-1.465 3.846zm2.004-1.061c0-.966.859-1.46 2.285-1.454v-.062c0-.253-.101-.674-.78-.674-.382 0-.775.118-1.033.286l-.191-.634c.286-.174.78-.337 1.392-.337 1.229 0 1.589.78 1.589 1.628v1.381c0 .348.017.685.062.926h-.876l-.073-.427h-.022c-.23.298-.634.517-1.14.517-.78-.006-1.213-.567-1.213-1.151zm6.495 12.968c-.618.651-1.387.982-2.302.982-.994 0-1.701-.354-2.133-1.061v3.924h-1.656v-8.051c0-.797-.022-1.617-.062-2.453h1.46l.09 1.185h.028c.556-.887 1.392-1.336 2.521-1.336.881 0 1.617.348 2.206 1.044s.881 1.617.881 2.751c.006 1.274-.342 2.274-1.033 3.015zm1.73-11.907h-.971V6.227h.971v5.608zm6.478 11.907c-.618.651-1.387.982-2.302.982-.988 0-1.701-.354-2.128-1.061v3.924h-1.662v-8.051c0-.797-.022-1.617-.062-2.453h1.454l.095 1.185h.028c.556-.887 1.392-1.336 2.521-1.336.881 0 1.617.348 2.206 1.044s.887 1.617.887 2.751c-.006 1.274-.348 2.274-1.039 3.015zm1.14-11.823c-.5 0-.938-.191-1.218-.662h-.017l-.045.578h-.831c.017-.258.034-.685.034-1.084V6.226h.971v2.291h.017c.236-.371.657-.618 1.235-.618.938 0 1.611.78 1.606 1.948-.006 1.387-.887 2.072-1.752 2.072zm8.353 11.879c-.679.606-1.617.904-2.824.904-1.117 0-2.01-.213-2.684-.646l.387-1.381a4.642 4.642 0 0 0 2.392.646c.629 0 1.112-.14 1.46-.421s.522-.657.522-1.134c0-.415-.146-.769-.427-1.055-.292-.286-.764-.55-1.426-.797-1.813-.674-2.717-1.662-2.717-2.964 0-.848.314-1.549.96-2.094.64-.539 1.488-.814 2.543-.814.943 0 1.724.163 2.352.488l-.421 1.353c-.584-.314-1.246-.477-1.987-.477-.584 0-1.044.146-1.375.427a1.245 1.245 0 0 0-.415.938c0 .404.157.747.477 1.016.275.247.78.511 1.505.797.893.354 1.549.78 1.971 1.263s.629 1.078.629 1.797c-.006.887-.314 1.606-.921 2.156zm5.85-5.473h-1.83v3.632c0 .921.326 1.381.971 1.381.298 0 .539-.022.735-.073l.045 1.258c-.326.123-.758.185-1.291.185-.651 0-1.168-.197-1.538-.601-.371-.399-.556-1.072-.556-2.01v-3.773h-1.089v-1.241h1.089v-1.364l1.628-.494v1.858h1.83v1.241h.006zm-.937-6.406c-1.084 0-1.926-.741-1.926-1.982 0-1.263.831-2.038 1.993-2.038 1.145 0 1.914.808 1.914 1.976-.006 1.415-1.005 2.043-1.982 2.043zm7.747 11.666c-.691.758-1.6 1.134-2.734 1.134-1.1 0-1.976-.365-2.622-1.089-.651-.724-.971-1.645-.971-2.751 0-1.157.337-2.105 1.005-2.841.674-.741 1.572-1.106 2.712-1.106 1.1 0 1.982.359 2.644 1.089.634.702.949 1.617.949 2.734-.006 1.151-.331 2.088-.982 2.829zm1.712-15.596h.545v-.724l.954-.269v.988h.926v.724h-.926v1.701c0 .472.124.713.5.713.174 0 .269-.006.382-.039l.017.735c-.14.056-.404.101-.702.101-.365 0-.657-.118-.837-.314-.213-.219-.309-.578-.309-1.084V8.713h-.545v-.724h-.006zm4.261 10.555a3.075 3.075 0 0 0-.522-.045c-.584 0-1.033.219-1.353.657-.275.393-.415.876-.415 1.477v3.919H70.95v-5.12c0-.853-.017-1.639-.045-2.347h1.443l.062 1.432h.045c.174-.488.449-.887.831-1.179a1.996 1.996 0 0 1 1.201-.399c.152 0 .292.006.41.028v1.578h.006zm.253-9.016v2.307h-.971V6.227h.971v2.285h.017c.118-.18.286-.331.483-.432.197-.112.427-.174.674-.174.657 0 1.342.432 1.342 1.667v2.268H76.7V9.68c0-.556-.208-.982-.741-.982-.382 0-.646.253-.758.545a.673.673 0 0 0-.045.286zm6.849 11.694h-4.98c.022.735.258 1.297.724 1.684.421.348.96.522 1.628.522.741 0 1.409-.118 2.015-.354l.264 1.157c-.702.309-1.544.46-2.504.46-1.156 0-2.066-.337-2.723-1.022-.662-.679-.994-1.594-.994-2.74 0-1.128.309-2.066.921-2.813.651-.797 1.521-1.196 2.616-1.196 1.078 0 1.892.399 2.442 1.196.438.634.662 1.42.662 2.352a6.283 6.283 0 0 1-.073.752zM47.702 8.657c-.393 0-.758.286-.859.713a1.09 1.09 0 0 0-.034.253v.623c0 .079.006.157.022.23a.889.889 0 0 0 .859.679c.606 0 .982-.483.982-1.263 0-.679-.326-1.235-.971-1.235zm6.99-.095c-.601 0-.853.545-.893.938h1.69c.011-.354-.146-.938-.797-.938zm6.529.039c-.685 0-.966.674-.966 1.314 0 .741.371 1.302.954 1.302.55 0 .938-.539.938-1.319.006-.601-.264-1.297-.926-1.297zm-18.695 2.072c0 .382.247.556.55.556a.805.805 0 0 0 .769-.528c.022-.073.022-.14.022-.213V9.96c-.685-.011-1.342.129-1.342.713zm37.788-2.111c-.601 0-.853.545-.893.938h1.69c.006-.354-.152-.938-.797-.938z"/>
    </symbol>
    <symbol id="burger" viewBox="0 0 53 32">
      <path stroke-linecap="round" stroke-width="3.2" d="M1.6 2.211h50.133M1.6 15.692h50.133M1.6 29.174h50.133"/>
    </symbol>
    <symbol id="instagram" viewBox="0 0 32 32">
      <path stroke-width="2.133" d="M29.274 9.059v.023l.001.023c.087 1.548.088 2.031.091 6.067v.015c0 4.037-.021 4.525-.089 6.096v.025a10.183 10.183 0 0 1-.605 3.272c-.321.852-.808 1.624-1.429 2.267s-1.362 1.143-2.175 1.47a9.185 9.185 0 0 1-3.128.62h-.022l-.021.001c-1.49.09-1.957.091-5.872.091-3.9 0-4.369-.021-5.887-.092h-.013a9.146 9.146 0 0 1-3.132-.668l-.004-.002a6.303 6.303 0 0 1-2.181-1.47 6.603 6.603 0 0 1-1.429-2.266 10.205 10.205 0 0 1-.605-3.273v-.02l-.001-.02c-.088-1.547-.088-2.033-.088-6.083 0-4.036.021-4.524.089-6.097l.001-.027c.02-1.118.225-2.223.605-3.268.32-.853.807-1.625 1.428-2.268S6.17 2.333 6.984 2.006a9.182 9.182 0 0 1 3.128-.621h.02l.02-.001c1.491-.089 1.959-.089 5.873-.089 3.9 0 4.37.02 5.886.09l.027.001a9.211 9.211 0 0 1 3.129.621c.813.327 1.555.826 2.176 1.469s1.109 1.415 1.429 2.268c.385 1.059.59 2.18.605 3.313zm-7.555-3.871c-.257.266-.46.58-.597.924a2.916 2.916 0 0 0-.051 2.024 8.303 8.303 0 0 0-5.058-1.728c-4.71 0-8.464 3.938-8.464 8.721s3.754 8.721 8.464 8.721a8.343 8.343 0 0 0 5.998-2.567 8.858 8.858 0 0 0 2.466-6.154c0-1.9-.602-3.741-1.703-5.247.289.104.602.161.931.161 1.576 0 2.79-1.311 2.79-2.852a2.893 2.893 0 0 0-.805-2.003c-.258-.266-.565-.48-.906-.626a2.743 2.743 0 0 0-3.066.626z"/>
      <path stroke-width="2.133" d="M19.752 15.129c0 2.192-1.708 3.906-3.739 3.906s-3.739-1.714-3.739-3.906 1.708-3.906 3.739-3.906 3.739 1.714 3.739 3.906z"/>
    </symbol>
    <symbol id="linkedin" viewBox="0 0 30 32">
      <path stroke-width="2.462" d="M5.045 1.496h-.001c-.282 0-.563.057-.827.17s-.506.279-.712.492c-.206.213-.372.468-.486.752s-.173.59-.173.899l2.199-2.314zm0 0c.282 0 .563.058.826.17s.506.28.711.493c.206.213.371.469.485.753s.172.59.172.9v.001M5.045 1.496 7.24 3.813m0 0c0 1.333-1.04 2.351-2.199 2.351-1.155 0-2.195-1.016-2.195-2.354l4.393.002zm9.216 10.189h.753l.343-.671c.618-1.21 1.88-2.436 4.221-2.436 2.682 0 3.998.868 4.744 2.08.83 1.349 1.117 3.369 1.117 5.996v9.602h-3.451v-8.395c0-1.09 0-2.622-.482-3.883-.256-.669-.67-1.33-1.345-1.817-.68-.491-1.517-.727-2.48-.727-.933 0-1.758.189-2.447.607-.697.423-1.159 1.023-1.458 1.676-.56 1.225-.589 2.761-.589 4.006v8.532h-3.451V11.311h3.213V14h1.314zM6.772 28.573H3.317V11.311h3.455v17.262z"/>
    </symbol>
    <symbol id="twitter" viewBox="0 0 41 32">
      <path d="M38.039 4.064a15.075 15.075 0 0 1-4.444 1.265A8.026 8.026 0 0 0 37.002.895a15.106 15.106 0 0 1-4.928 1.943C31.012 1.668 29.635.856 28.121.506s-3.094-.221-4.536.37c-1.442.591-2.679 1.616-3.551 2.944s-1.338 2.895-1.338 4.5c.001.614.067 1.226.198 1.824-3.078-.159-6.089-.985-8.838-2.427S4.882 4.252 2.937 1.778c-.99 1.762-1.294 3.848-.85 5.834s1.604 3.721 3.243 4.853a7.432 7.432 0 0 1-3.499-1v.097c.001 1.848.618 3.639 1.747 5.071s2.701 2.417 4.45 2.789a7.748 7.748 0 0 1-3.496.132c.496 1.59 1.46 2.98 2.755 3.978s2.86 1.552 4.474 1.586c-2.744 2.222-6.13 3.426-9.614 3.42a16.13 16.13 0 0 1-1.838-.108c3.326 2.204 7.164 3.442 11.112 3.583s7.859-.82 11.324-2.781c3.465-1.961 6.357-4.851 8.371-8.367s3.078-7.527 3.078-11.615l-.023-1.036a15.94 15.94 0 0 0 3.871-4.147l-.002-.002z"/>
    </symbol>
    <symbol id="facebook" viewBox="0 0 17 32">
      <path d="M15.341.276h-3.423c-.859-.055-1.719.098-2.521.447s-1.528.886-2.128 1.576c-.6.69-1.061 1.515-1.352 2.422s-.404 1.871-.332 2.831v3.35H2.141c-.143 0-.279.063-.38.176s-.157.266-.157.425v4.846c0 .159.057.312.158.425s.237.176.38.177h3.444v12.253c0 .16.057.312.159.425s.238.176.381.176h4.49c.143 0 .28-.063.381-.176s.158-.266.159-.425V16.951h4.024c.143 0 .279-.063.38-.176s.157-.266.157-.425v-4.859a.65.65 0 0 0-.157-.425c-.05-.056-.11-.1-.175-.131s-.136-.046-.207-.045h-4.026V8.049c0-1.365.291-2.058 1.883-2.058h2.307c.143 0 .279-.063.38-.176s.157-.266.157-.425V.881c0-.159-.056-.312-.157-.425s-.237-.177-.379-.178z"/>
    </symbol>
    <symbol id="time" viewBox="0 0 35 32">
      <path d="M16.313 32A16 16 0 0 1 5 4.687 16.013 16.013 0 0 1 13.192.308 16.004 16.004 0 0 1 32.313 16a15.997 15.997 0 0 1-16 16zm0-29.714a13.713 13.713 0 0 0-2.675 27.165 13.717 13.717 0 0 0 14.079-5.831A13.713 13.713 0 0 0 16.314 2.287z"/>
      <path d="m21.559 22.857-6.389-6.389V5.714h2.286v9.806l5.714 5.726-1.611 1.611z"/>
    </symbol>
    <symbol id="calendar" viewBox="0 0 35 32">
      <path d="M9.224 0a1.12 1.12 0 0 1 1.12 1.12v2.094h12.027v-2.08a1.12 1.12 0 0 1 2.24 0v2.08h4.336a3.2 3.2 0 0 1 3.2 3.199v22.389a3.2 3.2 0 0 1-3.2 3.199h-25.6a3.2 3.2 0 0 1-3.2-3.199V6.413a3.2 3.2 0 0 1 3.2-3.199h4.757V1.118A1.119 1.119 0 0 1 9.224 0zM2.387 12.387v16.414a.961.961 0 0 0 .959.959h25.6a.961.961 0 0 0 .959-.959V12.409l-27.52-.022zm8.427 11.003v2.666H8.147V23.39h2.667zm6.666 0v2.666h-2.666V23.39h2.666zm6.667 0v2.666H21.48V23.39h2.667zm-13.333-6.363v2.666H8.147v-2.666h2.667zm6.666 0v2.666h-2.666v-2.666h2.666zm6.667 0v2.666H21.48v-2.666h2.667zM8.104 5.453H3.347a.961.961 0 0 0-.959.959v3.736l27.52.022V6.412a.961.961 0 0 0-.959-.959h-4.336v1.486a1.12 1.12 0 0 1-2.24 0V5.453H10.346v1.472a1.12 1.12 0 0 1-2.24 0V5.453z"/>
    </symbol>
    <symbol id="google-play" viewBox="0 0 95 32">
      <path d="M41.067 7.141c-.197 0-.359.084-.494.258s-.202.393-.202.657c0 .275.073.5.213.674s.32.258.522.258c.197 0 .359-.09.494-.264s.202-.393.202-.657c0-.275-.073-.505-.213-.674a.64.64 0 0 0-.522-.253zM44.924 7.158c-.056 0-.135.006-.236.017.011.264.022.545.022.831 0 .32.006.634.022.943.084.017.174.028.258.028.286 0 .5-.09.634-.264.135-.18.208-.393.208-.646s-.073-.472-.225-.646c-.152-.18-.382-.264-.685-.264zM51.442 7.13c-.095 0-.197.011-.298.028.017.253.023.533.023.853.034 0 .073.006.118.006.483 0 .724-.152.724-.46 0-.281-.185-.427-.567-.427zM48.91 7.125c0 .051-.118.421-.354 1.112h.724c-.225-.685-.342-1.055-.342-1.112h-.028zM30.097 7.125c0 .051-.118.421-.354 1.112h.724c-.225-.685-.342-1.055-.342-1.112h-.028zM38.249 7.136c-.123 0-.236.011-.331.028.017.208.022.472.022.803.073 0 .135.006.185.006.421 0 .634-.146.634-.438-.006-.269-.174-.399-.511-.399zM35.391 7.158c-.056 0-.135.006-.236.017.011.264.022.545.022.831 0 .32.006.634.022.943.084.017.174.028.258.028.286 0 .5-.09.634-.264.135-.18.208-.393.208-.646s-.073-.472-.225-.646c-.152-.18-.376-.264-.685-.264zM57.527 7.141c-.197 0-.359.084-.494.258s-.202.393-.202.657c0 .275.073.5.213.674s.32.258.522.258c.197 0 .359-.09.494-.264s.202-.393.202-.657c0-.275-.073-.505-.213-.674a.647.647 0 0 0-.522-.253zM53.833 7.13c-.095 0-.197.011-.298.028.017.253.022.533.022.853.034 0 .073.006.118.006.483 0 .724-.152.724-.46 0-.281-.191-.427-.567-.427zM48.64 16.472c-.556 0-1.039.208-1.448.623s-.612.966-.612 1.656c0 .685.202 1.235.612 1.656.41.415.893.623 1.448.623s1.039-.208 1.448-.623c.41-.415.612-.966.612-1.656 0-.685-.202-1.235-.612-1.656-.41-.415-.893-.623-1.448-.623zM41.757 16.472c-.556 0-1.039.208-1.448.623s-.612.966-.612 1.656c0 .685.202 1.235.612 1.656.41.415.887.623 1.448.623.556 0 1.039-.208 1.448-.623s.612-.966.612-1.656c0-.685-.202-1.235-.612-1.656-.41-.415-.893-.623-1.448-.623zM74.431 13.822h-1.982v3.217h1.982c.5 0 .898-.168 1.196-.5.303-.337.449-.702.449-1.106s-.152-.775-.449-1.106c-.298-.337-.702-.505-1.196-.505zM81.611 19.15c-.292.247-.438.539-.438.876 0 .309.135.556.399.735s.573.269.915.269c.488 0 .932-.185 1.331-.545.399-.365.601-.797.601-1.291-.337-.275-.837-.41-1.505-.41-.578-.006-1.011.118-1.302.365zM64.674 16.472c-.438 0-.82.135-1.14.41s-.545.646-.662 1.106h3.655c-.028-.359-.191-.702-.494-1.027s-.758-.488-1.359-.488zM55.472 16.472c-.55 0-1.022.208-1.415.623s-.589.966-.589 1.656c0 .685.197 1.235.589 1.656.393.415.865.623 1.415.623.556 0 1.033-.208 1.42-.618.393-.41.584-.966.584-1.662s-.197-1.246-.584-1.662a1.878 1.878 0 0 0-1.42-.618z"/>
      <path d="M90.7.539H4.255A4.194 4.194 0 0 0 .061 4.733v22.636a4.194 4.194 0 0 0 4.194 4.194H90.7a4.194 4.194 0 0 0 4.194-4.194V4.733A4.202 4.202 0 0 0 90.7.539zM53.019 6.771h.348c.051 0 .146 0 .281-.006.14-.006.258-.006.365-.006.253 0 .466.056.64.174.174.112.258.286.258.522 0 .32-.118.55-.354.702s-.522.225-.87.225c-.062 0-.107 0-.135-.006 0 .247.006.578.022.988h-.561c.017-.382.028-.836.028-1.359.006-.477-.006-.893-.022-1.235zM48.141 8.09c.309-.797.466-1.235.466-1.319h.752c0 .073.14.511.421 1.297.281.792.421 1.224.421 1.291h-.64c0-.09-.062-.337-.18-.747h-.921c-.123.404-.185.651-.185.747h-.601c0-.051.157-.472.466-1.269zm-3.958-1.319h.348c.056 0 .14 0 .253-.006s.185-.006.219-.006c.477 0 .825.118 1.044.359.213.241.326.528.326.859 0 .376-.124.707-.365.988s-.578.421-1.016.421c-.197 0-.466-.006-.814-.022.017-.399.028-.853.028-1.359 0-.483-.006-.898-.023-1.235zm-1.264 0h.561c-.017.337-.028.747-.028 1.235 0 .5.011.954.028 1.359h-.561c.017-.41.028-.865.028-1.359 0-.483-.011-.898-.028-1.235zm-2.722.343c.247-.269.556-.404.926-.404.348 0 .646.123.881.371s.354.561.354.938c0 .41-.123.747-.376 1.016a1.206 1.206 0 0 1-.926.404c-.348 0-.646-.123-.881-.371s-.354-.561-.354-.938c0-.41.129-.752.376-1.016zm-5.547-.343h.348c.056 0 .14 0 .253-.006s.185-.006.219-.006c.477 0 .825.118 1.044.359.213.241.326.528.326.859 0 .376-.123.707-.365.988s-.578.421-1.016.421c-.197 0-.466-.006-.814-.022.017-.399.028-.853.028-1.359a20.52 20.52 0 0 0-.022-1.235zm-2.829 0h.589c0 .073.163.354.494.842.348.522.55.876.601 1.061h.028a7.054 7.054 0 0 1-.05-.797c0-.359-.011-.73-.028-1.106h.5a24.35 24.35 0 0 0-.028 1.235c0 .5.011.949.028 1.359h-.494c0-.056-.185-.342-.55-.865-.382-.55-.601-.921-.651-1.123h-.034c.034.292.051.556.051.786 0 .326.011.73.028 1.201h-.488c.023-.41.028-.865.028-1.359a20.52 20.52 0 0 0-.022-1.235zM29.328 8.09c.309-.797.466-1.235.466-1.319h.752c0 .073.14.511.421 1.297.281.792.421 1.224.421 1.291h-.64c0-.09-.062-.337-.18-.747h-.921c-.123.404-.185.651-.185.747h-.601c0-.051.157-.472.466-1.269zM8.326 7.17c4.031 2.257 8.062 4.519 12.093 6.771.185.101.18.163.039.303a295.22 295.22 0 0 0-2.689 2.678c-.095.095-.157.152-.286.022-3.206-3.273-6.417-6.535-9.628-9.802-.028-.028-.051-.062-.101-.129.241-.006.41.067.573.157zM7.085 27.088c-.337-.258-.466-.606-.466-1.022 0-1.746 0-3.486-.006-5.232v-3.7h.006V8.303c0-.359.067-.691.326-.966.101-.107.168-.135.292-.011 1.982 2.021 3.963 4.037 5.951 6.052 1.286 1.308 2.571 2.611 3.862 3.913.123.123.135.191.006.326-3.155 3.138-6.31 6.282-9.454 9.432-.197.202-.331.18-.516.039zm12.985-6.394c-3.756 2.055-7.512 4.121-11.262 6.181-.062.034-.118.09-.152.112 2.925-2.959 5.855-5.912 8.775-8.876.18-.185.264-.157.427.011.741.775 1.493 1.533 2.251 2.291.129.129.14.18-.039.281zm4.89-2.734c-.174.129-.371.236-.561.342-1.134.629-2.274 1.252-3.408 1.881-.152.084-.241.084-.371-.051a317.597 317.597 0 0 0-2.436-2.481c-.118-.118-.124-.185 0-.303.954-.938 1.903-1.886 2.846-2.835.112-.112.191-.123.331-.045 1.123.634 2.251 1.263 3.374 1.892.348.197.618.449.634.859a.918.918 0 0 1-.41.741zm11.919 2.784c-.865.909-1.993 1.364-3.385 1.364-1.331 0-2.459-.46-3.391-1.381s-1.398-2.066-1.398-3.43c0-1.364.466-2.509 1.398-3.43s2.06-1.381 3.391-1.381c.662 0 1.291.129 1.892.387s1.084.601 1.443 1.027l-.808.808c-.612-.73-1.448-1.095-2.521-1.095-.971 0-1.808.342-2.515 1.022s-1.061 1.566-1.061 2.655c0 1.089.354 1.976 1.061 2.655s1.544 1.022 2.515 1.022c1.027 0 1.886-.342 2.577-1.027.444-.444.702-1.067.775-1.864h-3.346v-1.1h4.469c.045.241.062.472.062.696-.011 1.286-.393 2.307-1.157 3.071zM37.94 8.326c0 .342.006.685.017 1.033h-.556c.017-.399.028-.853.028-1.359 0-.483-.011-.898-.028-1.235h.342c.039 0 .124 0 .253-.006s.241-.006.354-.006c.612 0 .915.208.915.623 0 .331-.174.561-.522.691v.028c.135.039.253.14.354.314s.236.488.41.943h-.589c-.152-.472-.269-.758-.354-.87s-.213-.163-.399-.163c-.079.006-.152.006-.224.006zm6.142 12.828c-.612.64-1.387.96-2.33.96s-1.718-.32-2.33-.96c-.612-.64-.915-1.437-.915-2.403 0-.96.303-1.763.915-2.403.606-.64 1.387-.96 2.33-.96s1.718.32 2.33.96c.606.64.915 1.437.915 2.403 0 .96-.303 1.763-.915 2.403zm6.888 0c-.612.64-1.387.96-2.33.96s-1.718-.32-2.33-.96c-.612-.64-.915-1.437-.915-2.403 0-.96.303-1.763.915-2.403.606-.64 1.387-.96 2.33-.96s1.718.32 2.33.96c.606.64.915 1.437.915 2.403 0 .96-.309 1.763-.915 2.403zm.331-12.777c-.062 0-.107 0-.135-.006 0 .247.006.578.022.988h-.561a30.8 30.8 0 0 0 0-2.594h.348c.051 0 .146 0 .281-.006.14-.006.258-.006.365-.006.253 0 .466.056.64.174.174.112.258.286.258.522 0 .32-.118.55-.354.702-.23.152-.522.225-.865.225zm7.315 13.204c0 1.084-.314 1.903-.938 2.465-.629.561-1.392.842-2.29.842-.747 0-1.353-.185-1.83-.561-.472-.376-.808-.803-1.016-1.28l1.084-.449a1.8 1.8 0 0 0 .662.865c.32.23.691.348 1.1.348.651 0 1.162-.197 1.538-.584.376-.393.561-.921.561-1.589v-.606h-.051c-.208.309-.5.567-.876.775s-.803.309-1.274.309c-.814 0-1.521-.32-2.111-.966s-.887-1.443-.887-2.392c0-.954.298-1.752.887-2.392.589-.646 1.297-.966 2.111-.966.472 0 .898.101 1.274.309s.668.466.876.775h.051v-.876h1.134v5.973h-.006zm-.174-12.547a1.206 1.206 0 0 1-.926.404c-.348 0-.646-.123-.881-.371s-.354-.561-.354-.938c0-.41.123-.747.376-1.016.247-.269.556-.404.926-.404.348 0 .646.123.881.371s.354.561.354.938c0 .41-.123.747-.376 1.016zm2.476 12.872h-1.185v-9.218h1.185v9.218zm.601-12.541h-.494c0-.056-.185-.342-.55-.865-.382-.55-.601-.921-.651-1.123h-.034c.034.292.051.556.051.786 0 .326.011.73.028 1.201h-.488c.022-.41.028-.865.028-1.359 0-.483-.011-.898-.028-1.235h.589c0 .073.163.354.494.842.348.522.55.876.601 1.061h.028a7.074 7.074 0 0 1-.051-.797c0-.359-.011-.73-.028-1.106h.5a24.35 24.35 0 0 0-.028 1.235c.006.5.011.949.034 1.359zm6.259 9.605h-4.98c.034.634.247 1.14.634 1.505a1.93 1.93 0 0 0 1.37.556c.848 0 1.426-.359 1.724-1.084l1.055.438c-.208.488-.545.898-1.016 1.229s-1.05.494-1.735.494c-.954 0-1.729-.32-2.324-.954s-.893-1.437-.893-2.408c0-.921.292-1.707.87-2.369s1.319-.988 2.218-.988c.938 0 1.684.303 2.246.915.561.606.842 1.426.842 2.448l-.011.219zm8.651-1.577a2.926 2.926 0 0 1-2.027.78h-1.954v3.733h-1.185v-9.218h3.138c.78 0 1.454.258 2.027.78s.853 1.173.853 1.965c.006.786-.281 1.443-.853 1.959zm2.813 4.513h-1.185v-9.218h1.185v9.218zm6.305 0h-1.134v-.876h-.051c-.472.719-1.162 1.084-2.072 1.084-.668 0-1.229-.191-1.679-.578s-.674-.898-.674-1.533c0-.685.264-1.224.797-1.617s1.19-.584 1.971-.584c.696 0 1.263.129 1.712.387v-.18c0-.466-.157-.837-.477-1.112-.32-.281-.707-.421-1.173-.421-.342 0-.657.084-.932.247a1.249 1.249 0 0 0-.573.668l-1.084-.466c.146-.376.432-.724.865-1.05.427-.32.994-.483 1.701-.483.808 0 1.477.236 2.01.707s.797 1.14.797 1.993v3.812h-.006zm2.577 2.779H86.9l1.465-3.178-2.599-5.906h1.286l1.881 4.531h.028l1.825-4.531h1.286l-3.947 9.084z"/>
    </symbol>
    <symbol id="more" viewBox="0 0 7 32">
      <path d="M6.857 26.817a3.428 3.428 0 1 1-6.856 0 3.428 3.428 0 0 1 6.856 0zm0-11.428a3.428 3.428 0 1 1-6.856 0 3.428 3.428 0 0 1 6.856 0zm0-11.429a3.428 3.428 0 1 1-6.856 0 3.428 3.428 0 0 1 6.856 0z"/>
    </symbol>
    <symbol id="info" viewBox="0 0 32 32">
      <path d="M17 30.325a14.936 14.936 0 0 0 14.933-14.933A14.93 14.93 0 0 0 17 .459 14.93 14.93 0 0 0 2.067 15.392 14.93 14.93 0 0 0 17 30.325zm1.736-17.569-1.867 8.783c-.131.635.054.995.567.995.362 0 .909-.131 1.281-.459l-.164.777c-.536.646-1.717 1.116-2.735 1.116-1.312 0-1.87-.788-1.508-2.462l1.378-6.474c.12-.547.011-.745-.536-.877l-.842-.151.153-.711 4.273-.536zM17 10.725a1.867 1.867 0 1 1 .001-3.735A1.867 1.867 0 0 1 17 10.725z"/>
    </symbol>
    <symbol id="arrow-up" viewBox="0 0 32 32">
      <path d="M14.882 1.676.22 29.105h29.325L14.883 1.676z"/>
    </symbol>
    <symbol id="arrow-down" viewBox="0 0 32 32">
      <path d="M14.882 30.33.22 2.901h29.325L14.883 30.33z"/>
    </symbol>
    <symbol id="star" viewBox="0 0 32 32">
      <path d="m16.725.902-4.923 9.846-9.846 1.231 6.777 7.582-1.854 10.88 9.846-4.923 9.846 4.923-1.838-10.88 6.761-7.582-9.846-1.231L16.725.902zm0 3.676 3.84 7.696 7.631.952-5.218 5.842 1.428 8.451-7.68-3.84-7.68 3.84 1.428-8.451-5.218-5.842 7.631-.952 3.84-7.696z"/>
    </symbol>
    <symbol id="icon-logo" viewBox="0 0 27 32">
      <path d="M6.972 15.365c0-4.98 4.017-8.997 8.997-9.03l.83-3.619c-.266-.033-.531-.033-.797-.033-6.972 0-12.649 5.677-12.649 12.649 0 3.087 1.096 5.909 2.955 8.1l2.49-2.722c-1.129-1.427-1.826-3.287-1.826-5.345zM22.077 22.038a8.944 8.944 0 0 1-6.075 2.357c-2.523 0-4.814-1.062-6.474-2.722l-2.457 2.689a12.568 12.568 0 0 0 8.93 3.685c3.386 0 6.474-1.328 8.731-3.519l-2.656-2.49zM17.96 2.882l-.797 3.552a8.79 8.79 0 0 1 4.913 2.291l2.922-2.224a12.647 12.647 0 0 0-7.038-3.619z"/>
      <path stroke-miterlimit="10" stroke-width=".762" d="M12.715 8.625a7.56 7.56 0 0 0-4.249 6.806 7.56 7.56 0 0 0 4.249 6.806"/>
      <path d="M12.715 10.318a1.693 1.693 0 1 0 0-3.386 1.693 1.693 0 0 0 0 3.386z"/>
      <path d="M11.918 8.625c0 .432.365.797.797.797s.797-.365.797-.797a.808.808 0 0 0-.797-.797.786.786 0 0 0-.797.797zM12.715 23.498a1.693 1.693 0 1 0 0-3.386 1.693 1.693 0 0 0 0 3.386z"/>
      <path d="M11.918 21.805c0 .432.365.797.797.797s.797-.365.797-.797a.808.808 0 0 0-.797-.797.786.786 0 0 0-.797.797z"/>
      <path stroke-miterlimit="10" stroke-width=".762" d="M25.098 26.453c-2.49 2.058-5.644 3.253-9.096 3.253M5.644 5.538c2.59-2.755 6.275-4.449 10.358-4.449 3.453 0 6.64 1.228 9.096 3.253M1.693 15.398c0-2.922.896-5.644 2.39-7.934M13.478 29.507A14.32 14.32 0 0 1 1.859 17.688"/>
      <path d="M25.098 28.212a1.693 1.693 0 1 0 0-3.386 1.693 1.693 0 0 0 0 3.386z"/>
      <path d="M25.098 27.316a.797.797 0 1 0 0-1.594.797.797 0 0 0 0 1.594zM16.4 31.565a1.693 1.693 0 1 0 0-3.386 1.693 1.693 0 0 0 0 3.386z"/>
      <path d="M16.4 30.669a.797.797 0 1 0 0-1.594.797.797 0 0 0 0 1.594zM13.246 31.2a1.693 1.693 0 1 0 0-3.386 1.693 1.693 0 0 0 0 3.386z"/>
      <path d="M13.246 30.304a.797.797 0 1 0 0-1.594.797.797 0 0 0 0 1.594zM1.992 19.846a1.693 1.693 0 1 0 0-3.386 1.693 1.693 0 0 0 0 3.386z"/>
      <path d="M1.992 18.95a.797.797 0 1 0 0-1.594.797.797 0 0 0 0 1.594zM1.693 16.692a1.693 1.693 0 1 0 0-3.386 1.693 1.693 0 0 0 0 3.386z"/>
      <path d="M1.693 15.796a.797.797 0 1 0 0-1.594.797.797 0 0 0 0 1.594zM3.951 9.522a1.693 1.693 0 1 0 0-3.386 1.693 1.693 0 0 0 0 3.386z"/>
      <path d="M3.951 8.625a.797.797 0 1 0 0-1.594.797.797 0 0 0 0 1.594zM4.216 5.339c0 .93.764 1.693 1.693 1.693s1.693-.764 1.693-1.693a1.7 1.7 0 0 0-1.693-1.693c-.963.033-1.693.764-1.693 1.693z"/>
      <path d="M5.079 5.339c0 .432.365.797.797.797s.797-.365.797-.797a.808.808 0 0 0-.797-.797c-.432.033-.797.365-.797.797zM25.231 6.102a1.693 1.693 0 1 0 0-3.386 1.693 1.693 0 0 0 0 3.386z"/>
      <path d="M25.231 5.206a.797.797 0 1 0 0-1.594.797.797 0 0 0 0 1.594z"/>
    </symbol>
  </defs>
</svg>
